<svg xmlns="http://www.w3.org/2000/svg" viewBox="0 0 24 24" role="img" aria-label="WhatsApp"><circle cx="12" cy="12" r="12" fill="#25D366"/><path fill="#fff" d="M18.2 5.8A8.7 8.7 0 0 0 4.5 16.3L3.4 20.5l4.3-1.1a8.7 8.7 0 0 0 10.5-13.6zm-6.1 12.1a7.2 7.2 0 0 1-3.7-1l-.27-.16-2.55.67.68-2.48-.18-.29a7.2 7.2 0 1 1 6.02 3.26zm3.94-5.38c-.22-.11-1.28-.63-1.48-.7-.2-.08-.34-.12-.49.1-.14.22-.56.7-.68.84-.13.15-.26.17-.48.06-.22-.11-.92-.34-1.76-1.08-.65-.58-1.09-1.3-1.22-1.51-.12-.22-.01-.34.1-.45.1-.1.22-.26.33-.39.1-.13.14-.22.21-.37.08-.14.04-.27-.02-.38-.05-.11-.48-1.18-.67-1.61-.17-.43-.35-.37-.48-.38h-.41c-.15 0-.38.05-.58.27-.2.22-.76.75-.76 1.83 0 1.08.79 2.12.9 2.27.11.14 1.55 2.37 3.75 3.32.52.22.93.36 1.25.46.53.17 1 .14 1.38.08.42-.06 1.28-.53 1.47-1.04.18-.51.18-.95.13-1.04-.06-.09-.2-.14-.42-.25z"/></svg>
